<svg id="_x33_0" enable-background="new 0 0 64 64" height="512" viewBox="0 0 64 64" width="512" xmlns="http://www.w3.org/2000/svg"><g><g><g><path d="m14.94 40.09h.01c-.51 1.22-.84 2.53-.95 3.91-3.72-2.16-6.72-5.24-8.79-8.84-2.07-3.61-3.21-7.75-3.21-12.05v-.22c0-8.6 4.57-16.56 12-20.89.11 1.38.44 2.69.94 3.91-5.6 4.12-8.94 10.34-8.94 16.99v.2c0 6.65 3.34 12.87 8.94 16.99z" fill="#ccd1d9"/></g><g><path d="m62 22.89v.22c0 4.3-1.14 8.44-3.21 12.05-2.07 3.6-5.07 6.68-8.79 8.84-.11-1.38-.44-2.69-.95-3.91h.01c5.6-4.12 8.94-10.34 8.94-16.99v-.2c0-6.65-3.34-12.87-8.94-16.99.5-1.22.83-2.53.94-3.91 7.43 4.33 12 12.29 12 20.89z" fill="#ccd1d9"/></g><g><path d="m28 14-10 9 10 9h-.96c-5.42 0-10.12 3.31-12.09 8.09h-.01c-5.6-4.12-8.94-10.34-8.94-16.99v-.2c0-6.65 3.34-12.87 8.94-16.99l3.24 4.63c2.34 2.16 5.46 3.46 8.86 3.46z" fill="#e6e9ed"/></g><g><path d="m36 14h.96c3.4 0 6.52-1.3 8.86-3.46l3.24-4.63c5.6 4.12 8.94 10.34 8.94 16.99v.2c0 6.65-3.34 12.87-8.94 16.99h-.01c-1.97-4.78-6.67-8.09-12.09-8.09h-.96l10-9z" fill="#e6e9ed"/></g><g><path d="m36 36v26h-8v-26h4z" fill="#b27946"/></g><g><path d="m32 32c-1.1 0-2 .9-2 2s.9 2 2 2h-4c-1.1 0-2-.9-2-2 0-.55.22-1.05.59-1.41.36-.37.86-.59 1.41-.59z" fill="#b4dd7f"/></g><g><path d="m36 32c1.1 0 2 .9 2 2 0 .55-.22 1.05-.59 1.41-.36.37-.86.59-1.41.59h-4c1.1 0 2-.9 2-2s-.9-2-2-2z" fill="#b4dd7f"/></g><g><circle cx="32" cy="34" fill="#a0d468" r="2"/></g><g><path d="m36 14v18h-4-4v-18z" fill="#cf9e76"/></g><g><path d="m38 10-2 4h-8l-2-4 6-6z" fill="#ffc729"/></g><g><path d="m28 14v18l-10-9z" fill="#fcd770"/></g><g><path d="m36 32v-18l10 9z" fill="#fcd770"/></g></g><g><path d="m50.504 1.136-1.369-.798-.131 1.579c-.5 5.988-5.432 10.712-11.369 11.05l1.582-3.164-7.217-7.217-7.217 7.217 1.582 3.164c-5.937-.338-10.87-5.062-11.369-11.05l-.131-1.579-1.369.798c-7.708 4.496-12.496 12.833-12.496 21.757v.215c0 8.924 4.788 17.26 12.496 21.756l1.369.798.131-1.579c.465-5.568 4.763-10.043 10.136-10.917-.077.267-.132.543-.132.834 0 1.302.839 2.402 2 2.816v26.184h10v-26.184c1.161-.414 2-1.514 2-2.816 0-.291-.055-.567-.133-.834 5.374.874 9.672 5.349 10.136 10.917l.131 1.579 1.369-.798c7.709-4.496 12.497-12.833 12.497-21.757v-.215c0-8.923-4.788-17.26-12.496-21.756zm-17.504 32.864c0 .551-.448 1-1 1s-1-.449-1-1 .448-1 1-1 1 .449 1 1zm-5 1c-.552 0-1-.449-1-1s.448-1 1-1h1.184c-.112.314-.184.648-.184 1s.072.686.184 1zm1-4v-16h6v16zm-2-1.245-7.505-6.755 7.505-6.755zm10-13.51 7.505 6.755-7.505 6.755zm-5-10.831 4.783 4.783-1.401 2.803h-6.764l-1.401-2.803zm-18.772 36.92c-6.345-4.282-10.228-11.516-10.228-19.227v-.215c0-7.71 3.883-14.945 10.228-19.227.131.651.319 1.281.537 1.897-5.576 4.354-8.765 10.63-8.765 17.341v.194c0 6.711 3.189 12.987 8.764 17.341-.218.615-.406 1.245-.536 1.896zm1.365-3.784c-4.84-3.955-7.593-9.525-7.593-15.453v-.194c0-5.928 2.753-11.498 7.593-15.453 2.151 4.05 6.214 6.93 10.907 7.455l-8.995 8.095 8.996 8.096c-4.694.524-8.756 3.404-10.908 7.454zm14.407 22.45v-24h6v24zm7-26h-1.184c.112-.314.184-.648.184-1s-.072-.686-.184-1h1.184c.552 0 1 .449 1 1s-.448 1-1 1zm2.5-3.904 8.995-8.096-8.995-8.096c4.693-.525 8.756-3.404 10.907-7.455 4.84 3.956 7.593 9.526 7.593 15.454v.194c0 5.928-2.753 11.498-7.593 15.453-2.152-4.05-6.215-6.93-10.907-7.454zm22.5-7.989c0 7.71-3.883 14.945-10.228 19.227-.131-.651-.319-1.281-.537-1.897 5.576-4.353 8.765-10.629 8.765-17.34v-.194c0-6.711-3.189-12.987-8.764-17.341.218-.615.406-1.245.537-1.897 6.344 4.283 10.227 11.517 10.227 19.228z"/><circle cx="40" cy="23" r="1"/><circle cx="24" cy="23" r="1"/><circle cx="32" cy="40" r="1"/><circle cx="32" cy="46" r="1"/><circle cx="32" cy="52" r="1"/><circle cx="32" cy="58" r="1"/></g></g></svg>