<?xml version="1.0"?>
<svg xmlns="http://www.w3.org/2000/svg" viewBox="0 0 256 256" width="512" height="512"><path d="M87.844,81.075V78.853c-7.591-3.224-12.491-9.578-15.659-16.308a12.309,12.309,0,0,0-2.163,7.226c0,7.13,4.215,7.13,4.215,14.26s-4.215,7.132-4.215,14.263,4.215,7.131,4.215,14.262-4.215,7.129-4.215,14.258,4.215,7.131,4.215,14.262a11.623,11.623,0,0,1-1.225,5.544l14.5-3.71a30.917,30.917,0,0,0,3.611-1.174c2.48-.97,2.943-1.37,15.207-7.467a5.788,5.788,0,0,0,3.17-5.182V117.266h0A41.013,41.013,0,0,1,87.844,81.075Z" fill="#fcdd86"/><path d="M183.824,62.526c-3.167,6.737-8.07,13.1-15.668,16.327v2.222A41.014,41.014,0,0,1,146.5,117.266v11.821a5.788,5.788,0,0,0,3.17,5.182c12.532,6.23,12.726,6.5,15.207,7.467a30.917,30.917,0,0,0,3.611,1.174L183,146.624a11.616,11.616,0,0,1-1.216-5.524c0-7.129,4.215-7.129,4.215-14.258s-4.215-7.131-4.215-14.262S186,105.447,186,98.313s-4.215-7.131-4.215-14.262S186,76.915,186,69.78A12.346,12.346,0,0,0,183.824,62.526Z" fill="#fcdd86"/><path d="M99.546,163.109c27.4,0,28.454,11.593,28.454,11.593s1.054-11.593,28.454-11.593a42.277,42.277,0,0,0,32.92-14.855l-20.886-5.344a30.917,30.917,0,0,1-3.611-1.174c-2.481-.971-2.675-1.237-15.207-7.467a5.788,5.788,0,0,1-3.17-5.182V117.266A39.264,39.264,0,0,1,128,121.9h0a39.264,39.264,0,0,1-18.5-4.632v11.821a5.788,5.788,0,0,1-3.17,5.182c-12.264,6.1-12.727,6.5-15.207,7.467a30.917,30.917,0,0,1-3.611,1.174l-20.886,5.344A42.277,42.277,0,0,0,99.546,163.109Z" fill="#f9d0b4"/><path d="M196.446,150.064l-7.072-1.81a42.277,42.277,0,0,1-32.92,14.855C129.054,163.109,128,174.7,128,174.7s-1.054-11.593-28.454-11.593a42.277,42.277,0,0,1-32.92-14.855l-7.072,1.81a15.839,15.839,0,0,0-9.341,6.742c3.006,1.368,6.631,2.482,8.953,4.616,3.42,3.142,3.963,11.149,8.768,13.725,4.183,2.244,11.355-1.532,16.406.189,4.57,1.556,7.8,8.97,12.952,10.03,4.782.985,10.731-4.5,15.909-4,4.9.476,9.645,7.034,14.81,7.034s9.914-6.558,14.813-7.034c5.179-.5,11.128,4.983,15.91,4,5.147-1.06,8.378-8.474,12.946-10.03,5.052-1.72,12.225,2.055,16.408-.188,4.8-2.576,5.347-10.583,8.767-13.725,2.319-2.13,5.935-3.244,8.937-4.608A15.832,15.832,0,0,0,196.446,150.064Z" fill="#edf4fc"/><path d="M208.4,164.79a16.244,16.244,0,0,0-2.608-7.975c-3,1.364-6.618,2.478-8.937,4.608-3.42,3.142-3.963,11.149-8.767,13.725-4.183,2.243-11.356-1.532-16.408.188-4.568,1.556-7.8,8.97-12.946,10.03-4.782.985-10.731-4.5-15.91-4-4.9.476-9.646,7.034-14.813,7.034s-9.912-6.558-14.81-7.034c-5.178-.5-11.127,4.983-15.909,4-5.149-1.06-8.382-8.474-12.952-10.03-5.051-1.721-12.223,2.055-16.406-.189-4.8-2.576-5.348-10.583-8.768-13.725-2.322-2.134-5.947-3.248-8.953-4.616A16.249,16.249,0,0,0,47.6,164.79l-3.829,81.989a6.323,6.323,0,0,0,6.254,6.721H205.976a6.323,6.323,0,0,0,6.253-6.721Z" fill="#c7d7e5"/><path d="M156.6,45.078h-.13c-13.062,0-20.129,2.635-23.956,5.392a9.625,9.625,0,0,1,.088,1.285c0,3.667-2.058,6.64-4.6,6.64s-4.6-2.973-4.6-6.64a9.535,9.535,0,0,1,.09-1.3c-3.833-2.751-10.9-5.376-23.935-5.376h-.152A11.428,11.428,0,0,0,87.844,56.454V81.075c0,22.453,18.07,40.823,40.156,40.823h0c22.086,0,40.156-18.37,40.156-40.823V56.456A11.432,11.432,0,0,0,156.6,45.078Z" fill="#f9d0b4"/><path d="M156.6,45.078a11.45,11.45,0,0,1,11.42,9.679,42.142,42.142,0,0,1,14.04-12.881c-.118-1.2-.28-2.4-.5-3.588-3.8-20.3-20.213-35.681-39.733-35.681a36.794,36.794,0,0,0-11.4,1.81,7.779,7.779,0,0,1-4.814,0,36.783,36.783,0,0,0-11.4-1.81c-19.521,0-35.935,15.384-39.733,35.681-.224,1.193-.386,2.394-.5,3.6A42.131,42.131,0,0,1,87.984,54.756a11.446,11.446,0,0,1,11.422-9.678h.152c13.037,0,20.1,2.625,23.935,5.376.419-3.044,2.277-5.339,4.507-5.339s4.094,2.3,4.509,5.355c3.827-2.757,10.894-5.392,23.956-5.392Z" fill="#fcdd86"/><path d="M185.825,39.971a42.326,42.326,0,0,0-17.81,14.786,11.31,11.31,0,0,1,.141,1.7v22.4c16.033-6.809,20.087-27.587,21.093-36.368A2.45,2.45,0,0,0,185.825,39.971Z" fill="#f9d0b4"/><path d="M87.844,56.454a11.44,11.44,0,0,1,.14-1.7A42.315,42.315,0,0,0,70.175,39.971a2.45,2.45,0,0,0-3.424,2.514c1.006,8.781,5.06,29.558,21.093,36.368Z" fill="#f9d0b4"/><ellipse cx="128" cy="51.755" rx="4.597" ry="6.64" fill="#70d6f9"/><path d="M73.012,149.12a2.5,2.5,0,0,1-2.236-3.619,9.053,9.053,0,0,0,.961-4.425,9.786,9.786,0,0,0-1.759-5.858,15.6,15.6,0,0,1,0-16.8,10.634,10.634,0,0,0,0-11.716,15.6,15.6,0,0,1,0-16.807,10.634,10.634,0,0,0,0-11.716,15.6,15.6,0,0,1,0-16.811l.053-.09a2.5,2.5,0,0,1,4.414.207c3.5,7.437,8.337,12.507,14.375,15.071a2.5,2.5,0,0,1,1.523,2.3v2.222a38.38,38.38,0,0,0,20.332,33.985A2.5,2.5,0,0,1,112,117.379v11.708a8.236,8.236,0,0,1-4.55,7.417c-4.533,2.254-7.45,3.727-9.453,4.739a61.293,61.293,0,0,1-5.963,2.821,33.726,33.726,0,0,1-3.9,1.268l-14.5,3.71A2.485,2.485,0,0,1,73.012,149.12Zm-.433-80.628c-.037.391-.058.814-.058,1.279a9.788,9.788,0,0,0,1.76,5.858,15.6,15.6,0,0,1,0,16.806,10.631,10.631,0,0,0,0,11.717,15.6,15.6,0,0,1,0,16.806,10.627,10.627,0,0,0,0,11.715,14.55,14.55,0,0,1,2.456,8.4,17.951,17.951,0,0,1-.11,2.039l10.265-2.627a28.6,28.6,0,0,0,3.32-1.08,57.793,57.793,0,0,0,5.531-2.628c2.009-1.015,4.935-2.492,9.474-4.75A3.3,3.3,0,0,0,107,129.087V118.738A43.379,43.379,0,0,1,85.344,81.075v-.621A31.827,31.827,0,0,1,72.579,68.492Z"/><path d="M183,149.124a2.486,2.486,0,0,1-.62-.079l-14.515-3.713a33.524,33.524,0,0,1-3.9-1.268,57.7,57.7,0,0,1-5.8-2.742c-2-1.009-4.948-2.5-9.605-4.814A8.24,8.24,0,0,1,144,129.087V117.266a2.5,2.5,0,0,1,1.325-2.207,38.38,38.38,0,0,0,20.331-33.984V78.853a2.5,2.5,0,0,1,1.523-2.3c6.042-2.566,10.882-7.642,14.383-15.089a2.5,2.5,0,0,1,4.416-.207l.068.117a15.624,15.624,0,0,1,0,16.815,10.638,10.638,0,0,0,0,11.723,15.608,15.608,0,0,1,0,16.809,10.634,10.634,0,0,0,0,11.719,15.6,15.6,0,0,1,0,16.8,9.785,9.785,0,0,0-1.76,5.857,9.169,9.169,0,0,0,.954,4.408A2.5,2.5,0,0,1,183,149.124Zm-34-30.386v10.349a3.305,3.305,0,0,0,1.79,2.947c4.663,2.319,7.623,3.814,9.626,4.825a54.278,54.278,0,0,0,5.372,2.549,28.644,28.644,0,0,0,3.318,1.08l10.288,2.632a17.618,17.618,0,0,1-.109-2.02,14.554,14.554,0,0,1,2.456-8.4,10.627,10.627,0,0,0,0-11.715,15.607,15.607,0,0,1,0-16.808,10.636,10.636,0,0,0,0-11.72,15.614,15.614,0,0,1,0-16.811,9.8,9.8,0,0,0,1.761-5.865c0-.479-.022-.916-.062-1.318a31.826,31.826,0,0,1-12.783,11.993v.621A43.381,43.381,0,0,1,149,118.738Z"/><path d="M127.469,103.079A25.777,25.777,0,0,1,111.541,97.3a2.5,2.5,0,1,1,3.082-3.936,19.842,19.842,0,0,0,25.676,0,2.5,2.5,0,1,1,3.082,3.936A25.755,25.755,0,0,1,127.469,103.079Z"/><path d="M149.291,74.924a2.5,2.5,0,0,1-2.5-2.5,2.5,2.5,0,1,0-5,0,2.5,2.5,0,0,1-5,0,7.5,7.5,0,1,1,15,0A2.5,2.5,0,0,1,149.291,74.924Z"/><path d="M116.709,74.924a2.5,2.5,0,0,1-2.5-2.5,2.5,2.5,0,1,0-5,0,2.5,2.5,0,0,1-5,0,7.5,7.5,0,1,1,15,0A2.5,2.5,0,0,1,116.709,74.924Z"/><path d="M128,177.2a2.5,2.5,0,0,1-2.489-2.274c-.007-.026-1.681-9.319-25.965-9.319-17.578,0-28.634-8.55-34.814-15.723a2.5,2.5,0,0,1,1.274-4.053l20.887-5.345a28.59,28.59,0,0,0,3.319-1.08,57.793,57.793,0,0,0,5.531-2.628c2.009-1.015,4.935-2.492,9.474-4.75A3.3,3.3,0,0,0,107,129.087V117.266a2.5,2.5,0,0,1,3.675-2.207,36.758,36.758,0,0,0,34.65,0A2.5,2.5,0,0,1,149,117.266v11.821a3.305,3.305,0,0,0,1.79,2.947c4.663,2.319,7.623,3.814,9.626,4.825a54.278,54.278,0,0,0,5.372,2.549,28.644,28.644,0,0,0,3.318,1.08l20.888,5.345a2.5,2.5,0,0,1,1.274,4.053c-6.18,7.173-17.236,15.723-34.814,15.723-24.038,0-25.956,9.226-25.965,9.319A2.5,2.5,0,0,1,128,177.2ZM71.37,149.621a39.662,39.662,0,0,0,28.176,10.988c17.572,0,25.17,4.617,28.454,8.548,3.284-3.931,10.882-8.548,28.454-8.548a39.662,39.662,0,0,0,28.176-10.988l-16.763-4.289a33.524,33.524,0,0,1-3.9-1.268,57.7,57.7,0,0,1-5.8-2.742c-2-1.009-4.948-2.5-9.605-4.814A8.24,8.24,0,0,1,144,129.087v-7.882a42.266,42.266,0,0,1-32,0v7.882a8.236,8.236,0,0,1-4.55,7.417c-4.533,2.254-7.45,3.727-9.453,4.739a61.293,61.293,0,0,1-5.963,2.821,33.835,33.835,0,0,1-3.9,1.268Z"/><path d="M128.012,190.9c-3.5,0-6.584-2.15-9.307-4.046-2-1.395-4.072-2.836-5.746-3-1.866-.182-4.3.872-6.646,1.89-3.095,1.344-6.3,2.731-9.526,2.069-3.544-.73-6.154-3.556-8.457-6.049-1.609-1.743-3.274-3.546-4.8-4.064-1.854-.632-4.482-.231-7.023.158-3.37.515-6.857,1.047-9.759-.509-3.525-1.891-5.113-5.692-6.515-9.046-.874-2.09-1.7-4.065-2.762-5.042a20.884,20.884,0,0,0-5.91-3.161c-.815-.337-1.621-.671-2.387-1.02a2.5,2.5,0,0,1-1.061-3.639,18.316,18.316,0,0,1,10.817-7.8l7.072-1.809a2.5,2.5,0,0,1,2.514.79,39.72,39.72,0,0,0,31.026,13.986c11.937,0,20.7,2.13,26.047,6.331A15.853,15.853,0,0,1,128,169.26a15.853,15.853,0,0,1,2.407-2.32c5.347-4.2,14.11-6.331,26.047-6.331a39.72,39.72,0,0,0,31.026-13.986,2.493,2.493,0,0,1,2.514-.79l7.072,1.809h0a18.312,18.312,0,0,1,10.823,7.811,2.5,2.5,0,0,1-1.063,3.638c-.762.346-1.561.677-2.37,1.012a20.917,20.917,0,0,0-5.909,3.161c-1.064.977-1.889,2.952-2.763,5.042-1.4,3.354-2.989,7.155-6.514,9.045-2.9,1.556-6.388,1.024-9.759.509-2.541-.387-5.167-.789-7.025-.157-1.52.518-3.184,2.32-4.793,4.063-2.3,2.493-4.911,5.318-8.456,6.048-3.221.663-6.427-.724-9.523-2.068-2.347-1.018-4.787-2.073-6.648-1.89-1.674.163-3.744,1.605-5.747,3C134.6,188.752,131.511,190.9,128.012,190.9ZM112.5,178.834c.312,0,.627.015.943.046,2.976.289,5.591,2.111,8.12,3.873,2.222,1.548,4.52,3.149,6.449,3.149s4.227-1.6,6.45-3.149c2.529-1.762,5.145-3.584,8.12-3.873,3.175-.312,6.194,1.008,9.123,2.28,2.382,1.033,4.843,2.1,6.524,1.757,1.97-.406,3.913-2.509,5.791-4.543,2.032-2.2,4.133-4.478,6.855-5.4,3.014-1.026,6.4-.509,9.39-.052,2.559.391,5.208.795,6.641.027,1.96-1.051,3.132-3.855,4.265-6.567,1.043-2.5,2.122-5.077,3.993-6.8a22.042,22.042,0,0,1,6.587-3.771,13.2,13.2,0,0,0-5.925-3.325l-5.6-1.432c-6.348,6.9-17.142,14.555-33.775,14.555-24.284,0-25.958,9.293-25.972,9.387a2.467,2.467,0,0,1-2.486,2.24,2.526,2.526,0,0,1-2.486-2.308c-.006-.026-1.68-9.319-25.964-9.319-16.633,0-27.427-7.655-33.775-14.555l-5.6,1.432a13.218,13.218,0,0,0-5.918,3.318,22.074,22.074,0,0,1,6.6,3.777c1.872,1.719,2.951,4.3,3.994,6.8,1.132,2.712,2.3,5.516,4.264,6.567,1.434.769,4.079.364,6.641-.027,2.989-.457,6.377-.974,9.39.052,2.722.927,4.825,3.2,6.858,5.405,1.879,2.034,3.821,4.138,5.792,4.543,1.685.346,4.143-.723,6.525-1.757C106.958,180.015,109.676,178.834,112.5,178.834Z"/><path d="M205.976,256H50.024a8.641,8.641,0,0,1-6.328-2.733,8.962,8.962,0,0,1-2.421-6.625L45.1,164.674a18.8,18.8,0,0,1,3.013-9.231,2.5,2.5,0,0,1,3.131-.912c.715.325,1.467.636,2.227.949,2.609,1.078,5.306,2.193,7.382,4.1,1.872,1.719,2.951,4.3,3.994,6.8,1.132,2.712,2.3,5.516,4.264,6.567,1.434.769,4.079.364,6.641-.027,2.989-.457,6.377-.974,9.39.052,2.722.927,4.825,3.2,6.858,5.405,1.879,2.034,3.821,4.138,5.792,4.543,1.685.346,4.143-.723,6.525-1.757,2.928-1.272,5.952-2.588,9.121-2.28,2.977.289,5.592,2.111,8.121,3.873,2.222,1.548,4.52,3.149,6.449,3.149s4.227-1.6,6.45-3.149c2.529-1.762,5.145-3.584,8.12-3.873,3.168-.306,6.194,1.008,9.123,2.28,2.382,1.033,4.843,2.1,6.524,1.757,1.97-.406,3.913-2.509,5.791-4.543,2.032-2.2,4.133-4.478,6.855-5.4,3.014-1.026,6.4-.509,9.391-.052,2.558.391,5.207.795,6.64.027,1.96-1.051,3.132-3.855,4.265-6.567,1.043-2.5,2.122-5.077,3.993-6.8,2.076-1.908,4.774-3.022,7.382-4.1.755-.311,1.5-.619,2.212-.942a2.5,2.5,0,0,1,3.131.914,18.794,18.794,0,0,1,3.007,9.2v.02l3.83,81.989a8.949,8.949,0,0,1-2.422,6.6A8.641,8.641,0,0,1,205.976,256ZM51.308,160a13.762,13.762,0,0,0-1.211,4.932L46.269,246.9a3.9,3.9,0,0,0,1.059,2.934,3.685,3.685,0,0,0,2.7,1.17H205.976a3.685,3.685,0,0,0,2.7-1.17,3.884,3.884,0,0,0,1.06-2.914l-3.83-82A13.731,13.731,0,0,0,204.7,160l-.239.1a20.892,20.892,0,0,0-5.909,3.161c-1.064.977-1.889,2.952-2.763,5.042-1.4,3.354-2.989,7.155-6.514,9.045-2.9,1.556-6.388,1.024-9.759.509-2.541-.387-5.167-.789-7.025-.157-1.52.518-3.184,2.32-4.793,4.063-2.3,2.493-4.911,5.318-8.456,6.048-3.221.663-6.427-.724-9.523-2.068-2.347-1.018-4.787-2.073-6.648-1.89-1.674.163-3.744,1.605-5.747,3-2.722,1.9-5.808,4.047-9.307,4.047s-6.584-2.15-9.307-4.046c-2-1.395-4.072-2.836-5.746-3-1.866-.182-4.3.872-6.646,1.89-3.095,1.344-6.3,2.731-9.526,2.069-3.544-.73-6.154-3.556-8.457-6.049-1.609-1.743-3.274-3.546-4.8-4.064-1.854-.632-4.482-.23-7.023.158-3.37.515-6.857,1.047-9.759-.509-3.525-1.891-5.113-5.692-6.515-9.046-.874-2.09-1.7-4.065-2.762-5.042a20.884,20.884,0,0,0-5.91-3.161Z"/><path d="M73.646,256a2.5,2.5,0,0,1-2.5-2.5V203.9a2.5,2.5,0,0,1,5,0v49.6A2.5,2.5,0,0,1,73.646,256Z"/><path d="M182.354,256a2.5,2.5,0,0,1-2.5-2.5V203.9a2.5,2.5,0,0,1,5,0v49.6A2.5,2.5,0,0,1,182.354,256Z"/><path d="M128,38.779c-23.276,0-41.768-9.593-48.637-13.718a2.5,2.5,0,0,1,2.575-4.287C88.449,24.685,105.974,33.779,128,33.779s39.564-9.1,46.075-13.013a2.5,2.5,0,0,1,2.576,4.286C169.782,29.179,151.292,38.779,128,38.779Z"/><path d="M128,46.914a2.5,2.5,0,0,1-2.5-2.5V34.436a2.5,2.5,0,0,1,5,0v9.978A2.5,2.5,0,0,1,128,46.914Z"/><path d="M128,124.4c-23.521,0-42.656-19.434-42.656-43.323V56.455A13.716,13.716,0,0,1,89.4,46.678a14.017,14.017,0,0,1,9.968-4.1h.189c11.447,0,19.99,1.967,25.393,5.845A2.5,2.5,0,0,1,125.97,50.8a6.917,6.917,0,0,0-.067.956c0,2.489,1.262,4.14,2.1,4.14s2.1-1.651,2.1-4.14a6.9,6.9,0,0,0-.066-.947,2.5,2.5,0,0,1,1.017-2.366c5.4-3.891,13.952-5.864,25.418-5.864h.1a.6.6,0,0,1,.06,0,14.021,14.021,0,0,1,9.975,4.1,13.714,13.714,0,0,1,4.055,9.774V81.075C170.656,104.964,151.521,124.4,128,124.4ZM99.354,47.578a9.037,9.037,0,0,0-6.422,2.641,8.744,8.744,0,0,0-2.588,6.236V81.076c0,21.131,16.892,38.322,37.656,38.322s37.656-17.191,37.656-38.323V56.456a8.747,8.747,0,0,0-2.587-6.234,9.054,9.054,0,0,0-6.444-2.644h-.159c-11.554,0-17.919,2.13-21.369,4.184,0,5.121-3.119,9.133-7.1,9.133s-7.1-4.015-7.1-9.14v-.007c-3.453-2.047-9.815-4.17-21.345-4.17h-.2Z"/><path d="M168.016,57.257a2.5,2.5,0,0,1-2.473-2.128,8.9,8.9,0,0,0-8.918-7.551h-.16c-12.947,0-19.379,2.676-22.5,4.921a2.5,2.5,0,0,1-3.939-1.693c-.259-1.909-1.259-3.191-2.031-3.191s-1.769,1.278-2.03,3.18a2.5,2.5,0,0,1-3.935,1.69c-3.118-2.238-9.549-4.907-22.477-4.907h-.2a8.889,8.889,0,0,0-8.9,7.55,2.5,2.5,0,0,1-4.543,1.03,39.5,39.5,0,0,0-13.183-12.1,2.5,2.5,0,0,1-1.252-2.417c.133-1.36.308-2.609.535-3.817C76.1,15.971,93.848.107,114.2.107a39.324,39.324,0,0,1,12.174,1.932,5.27,5.27,0,0,0,3.269,0A39.332,39.332,0,0,1,141.819.107c20.357,0,38.1,15.864,42.191,37.721.226,1.211.4,2.455.533,3.8a2.5,2.5,0,0,1-1.254,2.419,39.489,39.489,0,0,0-13.2,12.109A2.5,2.5,0,0,1,168.016,57.257Zm-11.39-14.679a13.943,13.943,0,0,1,12.2,7,44.828,44.828,0,0,1,10.555-9.024c-.084-.62-.18-1.219-.29-1.8-3.648-19.492-19.324-33.64-37.276-33.64A34.365,34.365,0,0,0,131.19,6.794a10.227,10.227,0,0,1-6.358,0A34.347,34.347,0,0,0,114.2,5.107c-17.95,0-33.627,14.148-37.275,33.641-.111.589-.207,1.19-.291,1.816A44.837,44.837,0,0,1,87.17,49.575a13.934,13.934,0,0,1,12.2-7h.189c9.582,0,17.13,1.378,22.5,4.1A6.766,6.766,0,0,1,128,42.615a6.853,6.853,0,0,1,5.927,4.083c5.376-2.736,12.934-4.12,22.538-4.12h.1A.6.6,0,0,1,156.626,42.578Z"/><path d="M168.156,81.353a2.5,2.5,0,0,1-2.5-2.5v-22.4a8.954,8.954,0,0,0-.113-1.33,2.5,2.5,0,0,1,.4-1.771,44.545,44.545,0,0,1,18.863-15.668h0a4.949,4.949,0,0,1,6.923,5.083c-1.043,9.1-5.333,31.051-22.6,38.384A2.512,2.512,0,0,1,168.156,81.353Zm2.454-25.948c.032.364.046.709.046,1.051V74.714c11.93-7.65,15.217-24.828,16.1-32.421A39.619,39.619,0,0,0,170.61,55.405Z"/><path d="M87.844,81.353a2.512,2.512,0,0,1-.978-.2C69.6,73.821,65.311,51.868,64.268,42.77a4.949,4.949,0,0,1,6.923-5.083A44.567,44.567,0,0,1,90.055,53.354a2.5,2.5,0,0,1,.4,1.776,8.842,8.842,0,0,0-.112,1.325v22.4a2.5,2.5,0,0,1-2.5,2.5Zm-18.687-39.1c.936,7.5,4.207,24.779,16.187,32.46V56.455c0-.339.015-.687.046-1.051A39.636,39.636,0,0,0,69.157,42.254Z"/><path d="M206.372,25.738h-2.266V23.472a3.071,3.071,0,1,0-6.142,0v2.266H195.7a3.071,3.071,0,0,0,0,6.142h2.265v2.267a3.071,3.071,0,1,0,6.142,0V31.88h2.266a3.071,3.071,0,0,0,0-6.142Z" fill="#70d6f9"/><path d="M58.857,104.782A10.8,10.8,0,0,1,50.2,96.3a.2.2,0,0,0-.384,0,10.8,10.8,0,0,1-8.654,8.478.19.19,0,0,0,0,.376,10.8,10.8,0,0,1,8.654,8.478.2.2,0,0,0,.384,0,10.8,10.8,0,0,1,8.654-8.478A.19.19,0,0,0,58.857,104.782Z" fill="#f5c84c"/><circle cx="181.019" cy="3.285" r="3.285" fill="#87d147"/><circle cx="44.019" cy="131.285" r="3.285" fill="#70d6f9"/><circle cx="225.019" cy="188.285" r="3.285" fill="#fc657e"/><path d="M128,60.9c-3.979,0-7.1-4.015-7.1-9.14s3.118-9.14,7.1-9.14,7.1,4.015,7.1,9.14S131.979,60.9,128,60.9Zm0-13.28c-.835,0-2.1,1.651-2.1,4.14s1.262,4.14,2.1,4.14,2.1-1.651,2.1-4.14S128.835,47.615,128,47.615Z"/></svg>
