<svg height="512pt" viewBox="-77 0 511 512" width="512pt" xmlns="http://www.w3.org/2000/svg"><path d="m124.160156 100.90625-12.089844-100.90625h136.988282l-12.113282 100zm0 0" fill="#fabe3d"/><path d="m259.695312 173.742188v-75.558594h-161.003906v75.558594c-59.96875 30.269531-98.191406 91.847656-98.191406 159.5625 0 98.535156 80.160156 178.695312 178.691406 178.695312 98.535156 0 178.695313-80.160156 178.695313-178.695312 0-67.714844-38.222657-129.292969-98.191407-159.5625zm0 0" fill="#fdf4f5"/><path d="m249.058594 0h-69.867188v100.464844l57.753906-.464844zm0 0" fill="#fd9126"/><path d="m259.695312 173.742188v-75.558594h-80.503906v413.816406c98.535156 0 178.695313-80.160156 178.695313-178.695312 0-67.714844-38.222657-129.292969-98.191407-159.5625zm0 0" fill="#efe2dd"/><path d="m26.167969 241.0625c-16.449219 27.292969-25.667969 59.023438-25.667969 92.242188 0 98.535156 80.160156 178.695312 178.691406 178.695312 98.535156 0 178.695313-80.160156 178.695313-178.695312 0-33.21875-9.214844-64.949219-25.667969-92.242188zm0 0" fill="#c4e945"/><g fill="#9edb3d"><path d="m332.21875 241.0625h-153.027344v270.9375c98.535156 0 178.695313-80.160156 178.695313-178.695312 0-33.21875-9.214844-64.949219-25.667969-92.242188zm0 0"/><path d="m196.300781 356.042969c-14.980469 0-27.171875-12.1875-27.171875-27.171875 0-14.980469 12.191406-27.167969 27.171875-27.167969s27.167969 12.1875 27.167969 27.167969c0 14.984375-12.1875 27.171875-27.167969 27.171875zm0 0"/><path d="m137.929688 385.851562c7.894531 0 15.460937-6.945312 15.09375-15.09375-.367188-8.179687-6.632813-15.097656-15.09375-15.097656-7.894532 0-15.460938 6.945313-15.09375 15.097656.367187 8.175782 6.632812 15.09375 15.09375 15.09375zm0 0"/><path d="m228.085938 429.535156c7.894531 0 15.460937-6.945312 15.09375-15.09375-.367188-8.179687-6.632813-15.09375-15.09375-15.09375-7.898438 0-15.460938 6.941406-15.09375 15.09375.363281 8.175782 6.628906 15.09375 15.09375 15.09375zm0 0"/></g><path d="m228.085938 429.535156c7.894531 0 15.460937-6.945312 15.09375-15.09375-.367188-8.179687-6.632813-15.09375-15.09375-15.09375-7.898438 0-15.460938 6.941406-15.09375 15.09375.363281 8.175782 6.628906 15.09375 15.09375 15.09375zm0 0" fill="#69ba30"/><path d="m196.300781 301.703125c-6.480469 0-12.433593 2.28125-17.109375 6.082031v42.175782c4.675782 3.800781 10.628906 6.082031 17.109375 6.082031 14.980469 0 27.167969-12.1875 27.167969-27.171875 0-14.980469-12.1875-27.167969-27.167969-27.167969zm0 0" fill="#69ba30"/><path d="m64.976562 83.089844h228.433594v30.1875h-228.433594zm0 0" fill="#efe2dd"/><path d="m179.191406 83.089844h114.214844v30.1875h-114.214844zm0 0" fill="#ccbfba"/></svg>