<svg height="512pt" viewBox="0 0 512.10579 512" width="512pt" xmlns="http://www.w3.org/2000/svg"><path d="m68.839844 134.882812c-16.335938-11.199218-38.511719-8.136718-51.199219 7.074219-12.691406 15.207031-11.730469 37.574219 2.21875 51.636719l39.933594 40.023438zm0 0" fill="#6a1b9a"/><path d="m503.527344 401.125c-8.859375 17.578125-21.0625 33.261719-35.925782 46.164062-42.582031 37.546876-107.519531 56.234376-181.675781 56.234376-2.132812 0-4.265625 0-6.398437-.167969-80.640625-1.28125-150.699219-29.78125-188.929688-71.679688-8.429687-9.101562-15.472656-19.398437-20.90625-30.550781-.511718-1.023438-.9375-2.046875-1.363281-3.074219-5.585937-12.453125-8.496094-25.941406-8.535156-39.59375v-166.65625c0-98.558593 77.910156-181.671875 176.46875-183.210937 14.292969-.261719 28.566406 1.226562 42.496093 4.4375 81.566407 18.582031 139.433594 91.109375 139.4375 174.765625v139.089843c-.222656 16.597657 3.925782 32.960938 12.03125 47.445313 11.261719 19.371094 35.242188 35.585937 73.300782 26.796875zm0 0" fill="#6a1b9a"/><path d="m460.859375 446.265625c-42.835937 36.949219-107.347656 55.980469-181.332031 57.089844-80.640625-1.28125-150.699219-29.78125-188.929688-71.679688-8.429687-9.101562-15.472656-19.398437-20.90625-30.550781-.511718-1.023438-.9375-2.046875-1.363281-3.074219v-221.78125c.234375-88.09375 71.816406-159.332031 159.914063-159.144531 10.839843-.027344 21.648437 1.089844 32.253906 3.328125 74.21875 14.929687 127.625 80.113281 127.660156 155.816406v194.476563s0 54.101562 72.703125 75.519531zm0 0" fill="#9d27b0"/><path d="m476.136719 193.59375-63.40625 63.402344-17.492188-17.492188-36.777343-36.863281 63.316406-63.320313c11.351562-11.363281 28.578125-14.460937 43.179687-7.761718.085938 0 0 .082031 0 .082031 4.175781 1.835937 7.964844 4.441406 11.179688 7.679687 7.210937 7.191407 11.265625 16.953126 11.265625 27.136719 0 10.183594-4.054688 19.949219-11.265625 27.136719zm0 0" fill="#6a1b9a"/><path d="m458.128906 176.527344-74.070312 79.53125-25.597656-53.417969 63.316406-63.320313c11.351562-11.363281 28.578125-14.460937 43.179687-7.761718.085938 0 0 .082031 0 .082031 7.863281 14.832031 5.089844 33.0625-6.828125 44.886719zm0 0" fill="#9d27b0"/><g fill="#4527a0"><path d="m113.9375 145.125-17.699219 48.042969 37.933594-4.214844 2.105469 18.96875 54.785156-25.292969zm0 0"/><path d="m299.050781 145.125 17.699219 48.042969-37.929688-4.214844-2.109374 18.96875-54.785157-25.292969zm0 0"/><path d="m238.992188 318.855469-34.132813 42.667969-34.132813-42.667969-34.132812 42.667969c-59.734375-25.601563-34.132812-119.46875-34.132812-119.46875l34.132812 42.667968 34.132812-42.667968 34.132813 42.667968 34.132813-42.667968 34.136718 42.667968 34.132813-42.667968s25.597656 93.867187-34.132813 119.46875zm0 0"/></g><path d="m51.261719 237.148438v121.308593c.070312 16.0625 3.738281 31.902344 10.742187 46.355469 30.726563 64.144531 120.722656 107.246094 223.921875 107.246094 109.101563 0 191.191407-39.039063 225.28125-107.121094 1.476563-2.953125 1.113281-6.496094-.933593-9.09375-2.042969-2.59375-5.40625-3.773438-8.625-3.03125-40.402344 9.320312-58.214844-12.800781-64-22.75-7.351563-13.1875-11.121094-28.078125-10.921876-43.179688v-71.804687l55.46875-55.46875c13.402344-13.429687 17.398438-33.613281 10.125-51.136719-7.269531-17.527344-24.378906-28.949218-43.355468-28.949218-11.433594.039062-22.449219 4.292968-30.941406 11.949218-23.761719-76.570312-93.738282-129.433594-173.882813-131.363281-80.148437-1.933594-152.585937 47.496094-180.011719 122.828125-20.664062-8.207031-44.25-.753906-56.449218 17.832031-12.199219 18.589844-9.648438 43.191407 6.101562 58.882813zm185.171875-220.023438c78.707031-1.238281 148.015625 51.609375 167.65625 127.835938l-51.664063 51.671874c-2.21875 2.140626-3.105469 5.3125-2.324219 8.296876.78125 2.984374 3.109376 5.3125 6.09375 6.09375 2.984376.78125 6.15625-.105469 8.296876-2.324219l63.359374-63.359375c11.824219-11.277344 30.417969-11.277344 42.242188 0 11.640625 11.671875 11.640625 30.566406 0 42.238281l-57.875 57.90625-5.410156 5.402344c-2.054688 2.023437-2.945313 4.953125-2.371094 7.777343.574219 2.828126 2.539062 5.171876 5.222656 6.234376v61.984374c-.207031 18.105469 4.34375 35.945313 13.191406 51.738282 13.304688 22.613281 38.40625 35.578125 64.546876 33.339844-35.199219 52.992187-107.425782 83.03125-201.472657 83.03125-95.265625 0-181.015625-40.109376-208.527343-97.527344-5.902344-12.160156-9-25.492188-9.070313-39.007813v-166.65625c-.011719-18.445312 2.902344-36.777343 8.632813-54.3125 21.816406-70.191406 85.992187-118.628906 159.472656-120.363281zm-210.542969 128.230469c8.734375-8.449219 21.664063-10.890625 32.878906-6.203125-4.941406 17.113281-7.46875 34.835937-7.507812 52.648437v21.179688l-25.371094-25.417969c-5.609375-5.589844-8.761719-13.183594-8.761719-21.105469 0-7.917969 3.152344-15.511719 8.761719-21.101562zm0 0"/><path d="m97.1875 201.648438 29.4375-3.265626 1.171875 10.476563c.296875 2.730469 1.886719 5.152344 4.277344 6.503906 2.390625 1.355469 5.285156 1.472657 7.777343.324219l54.769532-25.335938c2.960937-1.394531 4.863281-4.355468 4.898437-7.625.035157-3.273437-1.800781-6.277343-4.730469-7.734374l-77.113281-37.546876c-2.167969-1.054687-4.679687-1.144531-6.917969-.246093-2.238281.898437-3.988281 2.703125-4.824218 4.964843l-17.699219 48.042969c-1.023437 2.773438-.535156 5.882813 1.289063 8.214844 1.820312 2.328125 4.722656 3.546875 7.664062 3.21875zm21.503906-44.722657 52.445313 25.507813-27.683594 12.796875-.800781-7.191407c-.476563-4.320312-4.128906-7.589843-8.472656-7.59375-.320313-.003906-.640626.019532-.957032.058594l-24.191406 2.6875zm0 0"/><path d="m218.351562 190.351562 54.777344 25.316407c1.121094.515625 2.339844.78125 3.574219.777343 4.347656 0 8-3.265624 8.480469-7.585937l1.171875-10.488281 29.4375 3.277344c2.941406.328124 5.84375-.890626 7.664062-3.21875 1.824219-2.332032 2.3125-5.4375 1.289063-8.214844l-17.699219-48.042969c-.832031-2.261719-2.582031-4.066406-4.816406-4.964844-2.238281-.902343-4.75-.816406-6.917969.238281l-77.113281 37.546876c-2.96875 1.4375-4.84375 4.460937-4.808594 7.761718.03125 3.300782 1.964844 6.285156 4.960937 7.664063zm75.945313-33.46875 9.667969 26.25-24.207032-2.6875c-4.660156-.460937-8.828124 2.886719-9.386718 7.535157l-.800782 7.191406-27.683593-12.800781zm0 0"/><path d="m176.699219 236.117188c-.183594-.257813-.386719-.5-.605469-.726563-.210938-.171875-.46875-.214844-.683594-.359375-.476562-.308594-.988281-.570312-1.515625-.777344-.492187-.207031-1-.367187-1.519531-.476562-.535156-.09375-1.078125-.136719-1.621094-.128906-.535156-.007813-1.066406.035156-1.589844.128906-.53125.109375-1.050781.273437-1.550781.488281-.523437.203125-1.023437.460937-1.496093.765625-.234376.109375-.464844.226562-.6875.359375-.21875.230469-.425782.472656-.617188.726563-.222656.230468-.511719.347656-.714844.605468l-27.503906 34.335938-27.46875-34.335938c-2.003906-2.511718-5.25-3.679687-8.394531-3.03125-3.144531.652344-5.660157 3.011719-6.503907 6.109375-1.128906 4.132813-26.796874 101.359375 39.003907 129.554688 3.527343 1.511719 7.628906.484375 10.027343-2.507813l27.46875-34.339844 27.46875 34.339844c1.675782 1.929688 4.109376 3.039063 6.664063 3.039063 2.558594 0 4.988281-1.109375 6.664063-3.039063l27.46875-34.339844 27.46875 34.339844.078124.058594c.734376.875 1.640626 1.589844 2.664063 2.097656.222656.121094.453125.230469.691406.324219 1.019531.453125 2.117188.703125 3.234375.726563h.066406c1.039063-.019532 2.066407-.230469 3.027344-.621094.085938 0 .179688 0 .265625-.0625 65.800781-28.160156 40.109375-125.4375 39.007813-129.550782-.085938-.308593-.308594-.539062-.417969-.855468-.210937-.542969-.472656-1.066406-.785156-1.5625-.3125-.460938-.671875-.890625-1.078125-1.277344-.1875-.261719-.394532-.511719-.621094-.742188-.1875-.15625-.417969-.1875-.605469-.316406-.945312-.574218-1.96875-1.007812-3.039062-1.289062-.511719-.09375-1.03125-.136719-1.550781-.128906-.574219-.015626-1.144532.019531-1.707032.113281-.222656 0-.445312 0-.667968.050781-.292969.125-.578126.265625-.851563.425781-.523437.203125-1.027344.457031-1.503906.757813-.480469.324218-.929688.695312-1.339844 1.109375-.21875.230469-.511719.351562-.714844.609375l-27.484375 34.34375-27.472656-34.335938c-.226562-.21875-.46875-.417968-.722656-.605468-.1875-.257813-.386719-.5-.605469-.726563-.214844-.171875-.46875-.214844-.683594-.359375-.476562-.308594-.984375-.566406-1.511719-.777344-.492187-.207031-1.003906-.367187-1.527343-.476562-.535157-.09375-1.078125-.136719-1.621094-.128906-.527344-.007813-1.058594.035156-1.578125.128906-.535156.113281-1.058594.273437-1.5625.488281-.519531.203125-1.015625.460937-1.484375.765625-.238281.105469-.472656.226562-.699219.359375-.21875.234375-.421875.476563-.613281.734375-.25.183594-.492187.382812-.71875.597656l-27.46875 34.335938-27.46875-34.335938c-.21875-.214844-.449219-.417968-.691406-.605468zm28.160156 57.128906c2.59375 0 5.046875-1.175782 6.664063-3.199219l27.46875-34.339844 27.46875 34.339844c1.621093 2.023437 4.074218 3.203125 6.667968 3.203125 2.589844 0 5.042969-1.179688 6.664063-3.203125l22.59375-28.246094c3.558593 25.15625 4.855469 70.492188-26.929688 88.96875l-29.800781-37.246093c-.226562-.21875-.46875-.421876-.722656-.609376-.1875-.25-.390625-.492187-.605469-.722656-.21875-.128906-.445313-.246094-.675781-.351562-.480469-.316406-.996094-.582032-1.535156-.792969-.484376-.203125-.988282-.359375-1.503907-.46875-.53125-.101563-1.074219-.144531-1.621093-.136719-.519532 0-1.039063.042969-1.550782.128906-.542968.109376-1.070312.277344-1.578125.492188-.519531.207031-1.011719.464844-1.476562.769531-.242188.105469-.476563.226563-.699219.359375-.21875.230469-.425781.476563-.617188.734375-.25.183594-.488281.382813-.714843.597657l-27.496094 34.335937-27.46875-34.335937c-1.675781-1.933594-4.105469-3.042969-6.664063-3.042969-2.558593 0-4.988281 1.109375-6.664062 3.042969l-29.867188 37.28125c-31.699218-18.441407-30.414062-63.804688-26.886718-88.976563l22.578125 28.21875c1.675781 1.929687 4.105469 3.039063 6.664062 3.039063 2.558594 0 4.988281-1.109376 6.664063-3.039063l27.511718-34.339844 27.46875 34.339844c1.621094 2.023437 4.074219 3.199219 6.664063 3.199219zm0 0"/></svg>