<svg height="511pt" viewBox="-50 0 511 511.99963" width="511pt" xmlns="http://www.w3.org/2000/svg"><path d="m315.296875 504.5h-219.183594c-25.550781 0-46.261719-20.714844-46.261719-46.261719v-26.347656c0-40.925781 33.175782-74.097656 74.097657-74.097656h163.511719c40.921874 0 74.097656 33.171875 74.097656 74.097656v26.347656c0 25.546875-20.710938 46.261719-46.261719 46.261719zm0 0" fill="#dd6642"/><path d="m151.398438 433.328125v-75.535156h-27.449219c-40.921875 0-74.097657 33.171875-74.097657 74.097656v26.347656c0 25.546875 20.710938 46.261719 46.261719 46.261719h41.089844c-13.496094-40.007812 14.195313-71.171875 14.195313-71.171875zm0 0" fill="#b24e2f"/><path d="m205.707031 375.351562 54.046875 56.753907c7.589844 7.96875 20.71875 6.332031 26.117188-3.253907l10.375-18.421874c4.085937-7.257813 11.585937-11.933594 19.898437-12.410157l27.234375-1.566406c13.140625-.753906 18.273438-17.4375 7.824219-25.445313l-48.398437-37.117187zm0 0" fill="#e7896e"/><path d="m106.632812 340.398438-30.09375 10.59375c-12.300781 4.332031-13.601562 21.214843-2.105468 27.378906l20.769531 11.136718c6.847656 3.671876 10.632813 11.269532 9.441406 18.945313l-2.5625 16.523437c-1.667969 10.761719 8.320313 19.660157 18.820313 16.765626l47.75-13.175782c5.25-1.445312 10.867187-.484375 15.335937 2.628906l19.527344 13.597657c11.121094 7.746093 26.523437 1.296875 28.8125-12.0625l15.8125-92.332031zm0 0" fill="#f2ad9a"/><path d="m88.375 247.691406c13.957031 13.960938 13.957031 36.59375 0 50.550782-13.960938 13.960937-36.59375 13.960937-50.554688 0-7.664062-7.664063-19.488281-34.734376-28.59375-57.582032-5.390624-13.535156 8.027344-26.957031 21.5625-21.5625 22.851563 9.101563 49.917969 20.925782 57.585938 28.59375zm0 0" fill="#00a65b"/><path d="m323.039062 247.691406c-13.960937 13.960938-13.960937 36.59375 0 50.550782 13.957032 13.960937 36.589844 13.960937 50.550782 0 7.667968-7.664063 19.492187-34.734376 28.59375-57.582032 5.394531-13.535156-8.027344-26.957031-21.5625-21.5625-22.847656 9.101563-49.917969 20.925782-57.582032 28.59375zm0 0" fill="#00c172"/><path d="m233.453125 394.261719h-55.492187c-58.230469 0-105.433594-47.203125-105.433594-105.429688v-78.378906c0-73.480469 59.570312-133.046875 133.046875-133.046875h.261719c73.480468 0 133.046874 59.566406 133.046874 133.046875v78.378906c0 58.226563-47.203124 105.429688-105.429687 105.429688zm0 0" fill="#60daa8"/><path d="m134.804688 226.90625c-10.367188-88.175781 74.230468-135.105469 98.441406-146.648438-8.878906-1.867187-18.105469-2.851562-27.539063-2.851562-73.550781 0-133.175781 59.625-133.175781 133.175781v78.148438c0 55.707031 43.171875 101.332031 97.878906 105.257812-45.214844-24.96875-25.882812-84.410156-35.605468-167.082031zm0 0" fill="#00ce8e"/><path d="m149.890625 307.445312c0-9.078124-9.242187-16.4375-20.644531-16.4375-11.398438 0-20.640625 7.359376-20.640625 16.4375 0 9.078126 9.242187 16.4375 20.640625 16.4375 11.402344 0 20.644531-7.359374 20.644531-16.4375zm0 0" fill="#ffb3dd"/><path d="m302.804688 307.445312c0-9.078124-9.242188-16.4375-20.640626-16.4375-11.398437 0-20.640624 7.359376-20.640624 16.4375 0 9.078126 9.242187 16.4375 20.640624 16.4375 11.398438 0 20.640626-7.359374 20.640626-16.4375zm0 0" fill="#ffb3dd"/><path d="m176.214844 235.453125c-4.796875 7.246094-14.554688 9.230469-21.800782 4.433594l-19.609374-12.980469c-7.242188-4.796875-9.230469-14.554688-4.433594-21.800781 4.796875-7.246094 14.558594-9.230469 21.800781-4.433594l19.609375 12.980469c7.246094 4.796875 9.230469 14.558594 4.433594 21.800781zm0 0" fill="#00c172"/><path d="m237.089844 235.453125c4.796875 7.246094 14.558594 9.230469 21.800781 4.433594l19.609375-12.980469c7.246094-4.796875 9.230469-14.554688 4.433594-21.800781-4.792969-7.246094-14.554688-9.230469-21.800782-4.433594l-19.609374 12.980469c-7.246094 4.796875-9.230469 14.558594-4.433594 21.800781zm0 0" fill="#00c172"/><path d="m163.09375 102.363281c-4.871094-25.476562-3.632812-59.808593 24.246094-89.621093 8.210937-8.78125 22.753906-6.140626 27.289062 4.992187 4.898438 12.015625 9.96875 24.710937 9.96875 24.710937l33.269532-11.414062c8.796874-3.019531 18.128906 2.882812 19.167968 12.128906l4.210938 37.515625 13.121094 2.703125c11.789062 2.425782 17.347656 16.015625 10.667968 26.027344-13.582031 20.351562-41.753906 46.621094-94.4375 38.558594-23.832031-3.644532-42.976562-21.917969-47.503906-45.601563zm0 0" fill="#b0f0ef"/><path d="m218.617188 115.117188c-16.570313-28.992188 5.980468-72.671876 5.980468-72.671876s-5.070312-12.695312-9.96875-24.710937c-4.535156-11.132813-19.074218-13.773437-27.285156-4.992187-27.878906 29.808593-29.121094 64.144531-24.25 89.621093 4.527344 23.683594 23.671875 41.957031 47.503906 45.601563 20.796875 3.183594 37.78125 1.011718 51.550782-4.027344-15.304688-7.019531-32.34375-9.238281-43.53125-28.820312zm0 0" fill="#76e7e7"/><path d="m260.011719 284.722656v12.453125c0 4.140625 3.355469 7.5 7.5 7.5s7.5-3.359375 7.5-7.5v-12.453125c0-4.140625-3.355469-7.5-7.5-7.5s-7.5 3.359375-7.5 7.5zm0 0"/><path d="m143.898438 277.222656c-4.140626 0-7.5 3.359375-7.5 7.5v12.453125c0 4.140625 3.359374 7.5 7.5 7.5 4.144531 0 7.5-3.359375 7.5-7.5v-12.453125c0-4.140625-3.355469-7.5-7.5-7.5zm0 0"/><path d="m205.707031 307.445312c7.136719 0 13.738281-3.5625 17.660157-9.527343 2.273437-3.464844 1.308593-8.113281-2.152344-10.386719-1.269532-.832031-6.882813-2.992188-10.386719 2.148438-1.679687 2.46875-4.128906 2.765624-5.121094 2.765624-.996093 0-3.484375-.269531-5.125-2.765624-2.273437-3.460938-6.925781-4.421876-10.386719-2.148438-3.460937 2.273438-4.421874 6.921875-2.148437 10.386719 3.917969 5.964843 10.519531 9.527343 17.660156 9.527343zm0 0"/><path d="m167.726562 249.535156c6.082032-1.234375 11.316407-4.765625 14.742188-9.941406 7.070312-10.679688 4.136719-25.121094-6.546875-32.195312l-19.609375-12.980469c-10.683594-7.070313-25.125-4.132813-32.195312 6.546875-7.070313 10.679687-4.132813 25.125 6.546874 32.195312l19.609376 12.980469c3.851562 2.550781 8.265624 3.867187 12.777343 3.867187 1.554688 0 3.121094-.15625 4.675781-.472656zm-28.78125-28.882812c-1.832031-1.210938-3.085937-3.066406-3.523437-5.222656-.4375-2.152344-.011719-4.351563 1.203125-6.183594 1.582031-2.390625 4.203125-3.683594 6.875-3.683594 1.5625 0 3.136719.441406 4.53125 1.363281l19.609375 12.980469c3.785156 2.507812 4.824219 7.625 2.320313 11.410156-1.214844 1.832032-3.066407 3.082032-5.222657 3.519532s-4.351562.011718-6.183593-1.203126zm0 0"/><path d="m292.582031 218.417969c1.238281-6.082031.03125-12.277344-3.394531-17.453125-3.425781-5.171875-8.660156-8.703125-14.742188-9.941406-6.078124-1.234376-12.277343-.03125-17.453124 3.394531l-19.609376 12.984375c-10.679687 7.070312-13.617187 21.511718-6.546874 32.191406 3.425781 5.175781 8.660156 8.707031 14.742187 9.941406 1.558594.320313 3.121094.472656 4.675781.472656 4.511719 0 8.929688-1.316406 12.777344-3.863281l19.609375-12.984375c5.175781-3.425781 8.707031-8.660156 9.941406-14.742187zm-14.699219-2.988281c-.4375 2.152343-1.6875 4.007812-3.523437 5.222656l-19.609375 12.980468c-1.832031 1.214844-4.027344 1.640626-6.183594 1.203126-2.152344-.4375-4.007812-1.6875-5.222656-3.519532-2.503906-3.785156-1.464844-8.902344 2.320312-11.410156l19.609376-12.980469c1.832031-1.214843 4.03125-1.640625 6.183593-1.203125 2.152344.4375 4.007813 1.6875 5.222657 3.523438 1.214843 1.832031 1.640624 4.027344 1.203124 6.183594zm0 0"/><path d="m403.804688 217.476562c-6.921876-6.921874-16.867188-8.96875-25.957032-5.347656-12.226562 4.871094-22.746094 9.355469-31.464844 13.402344v-14.949219c0-35.382812-12.980468-68.769531-36.679687-94.730469 5.019531-7.847656 6.953125-17.621093 3.855469-25.164062-3.09375-7.53125-9.703125-13.011719-17.679688-14.652344l-7.789062-1.605468-3.601563-32.105469c-.75-6.675781-4.4375-12.570313-10.117187-16.164063-5.679688-3.59375-12.582032-4.40625-18.9375-2.222656l-26.527344 9.101562c-1.929688-4.8125-4.667969-11.597656-7.328125-18.132812-3.09375-7.59375-9.753906-13.015625-17.820313-14.503906-8.085937-1.492188-16.269531 1.207031-21.894531 7.21875-22.09375 23.628906-28.480469 49.859375-28.457031 72.347656-18.203125 7.308594-34.945312 18.515625-48.664062 32.652344-2.882813 2.972656-2.8125 7.722656.160156 10.605468 1.457031 1.414063 7.023437 3.519532 10.605468-.160156 11.132813-11.429687 24.441407-20.75 38.945313-27.253906 3.230469 37.976562 31.871094 61.136719 74.890625 61.136719 34.164062 0 56.746094-14.777344 70.714844-29.378907 20.253906 22.953126 31.324218 52.132813 31.324218 83.011719v78.148438c0 54.058593-43.976562 98.035156-98.03125 98.035156h-55.289062c-54.054688 0-98.03125-43.976563-98.03125-98.035156v-78.148438c0-21.949219 5.738281-43.550781 16.597656-62.46875 2.0625-3.59375.824219-8.175781-2.769531-10.238281-3.589844-2.0625-8.175781-.824219-10.238281 2.769531-12.160156 21.1875-18.589844 45.375-18.589844 69.9375v14.949219c-8.71875-4.046875-19.238281-8.53125-31.464844-13.402344-9.089844-3.621094-19.035156-1.570312-25.957031 5.351563-6.921875 6.917969-8.96875 16.863281-5.347656 25.957031 19.769531 49.625 27.664062 57.515625 30.257812 60.109375 8.265625 8.265625 20.910157 13.378906 35.820313 12.359375 2.308594 9.3125 5.769531 18.175781 10.230468 26.421875 0 0-18.183593 4.417969-19.484374 21.089844-.410157 5.273437.980468 10.277343 3.785156 14.386719-13.257813 14.933593-20.515625 33.949218-20.515625 54.085937v26.347656c0 29.644531 24.117187 53.761719 53.761719 53.761719h219.1875c29.640624 0 53.761718-24.117188 53.761718-53.761719 0 0-.207031-33.0625-.609375-36.359375-.503906-4.109375-4.246093-7.042968-8.355469-6.53125-4.113281.503906-7.035156 4.246094-6.53125 8.355469.328126 2.695313.496094 34.535156.496094 34.535156 0 21.375-17.386718 38.761719-38.761718 38.761719h-219.191407c-21.375 0-38.761719-17.386719-38.761719-38.761719v-26.347656c0-16.753906 6.148438-32.5625 17.375-44.851563l16.933594 9.078126c4.035156 2.164062 6.277344 6.660156 5.574219 11.1875l-2.566406 16.519531c-1.175781 7.582031 1.542969 15.152343 7.269531 20.253906 5.730469 5.101563 13.5625 6.933594 20.957031 4.890625l47.753907-13.171875c3.105468-.855469 6.40625-.292969 9.050781 1.550781l19.527343 13.597656c4.445313 3.097657 14.386719 6.8125 24.902344 2.648438 8.316406-3.296875 14.078125-10.78125 15.589844-19.597656l1.75-10.214844 12.855469 13.496094c4.566406 4.796875 12.257812 8.203125 20.234375 7.226562 7.589844-.929687 14.09375-5.308594 17.84375-11.972656l10.378906-18.421875c2.847656-5.054687 8.003906-8.269531 13.792969-8.601563l27.234375-1.566406c9.148437-.527344 16.800781-6.527344 19.496094-15.285156 2.695312-8.761719-.261719-18.023438-7.535157-23.601562l-24.957031-19.140626c5.445312-9.246093 9.613281-19.332031 12.261719-30.011718 14.914062 1.769531 27.558593-4.09375 35.820312-12.359375 2.59375-2.59375 10.488281-10.488281 30.257813-60.113281 3.621094-9.085938 1.574218-19.03125-5.347656-25.953126zm-192.074219-76.925781c-20.765625-3.175781-37.351563-19.089843-41.269531-39.59375-6.234376-32.605469 1.289062-60.5625 22.359374-83.09375 1.746094-1.867187 4.496094-3.476562 8.214844-2.710937 3.042969.628906 5.476563 2.535156 6.648438 5.414062 4.832031 11.851563 9.898437 24.535156 9.949218 24.660156 1.480469 3.714844 5.617188 5.613282 9.398438 4.3125l33.265625-11.414062c2.03125-.699219 4.238281-.4375 6.050781.707031 1.8125 1.148438 2.992188 3.03125 3.230469 5.164063l4.210937 37.515625c.363282 3.230469 2.761719 5.855469 5.941407 6.511719l13.121093 2.703124c3.128907.644532 5.617188 2.707032 6.828126 5.65625 1.21875 2.964844.894531 6.195313-.886719 8.863282-13.429688 20.128906-39.4375 42.589844-87.0625 35.304687zm-168.605469 152.390625c-2.496094-2.496094-10.117188-12.859375-26.929688-55.058594-2.058593-5.160156 1.023438-8.804687 2.019532-9.800781.992187-.992187 4.636718-4.074219 9.796875-2.019531 15.167969 6.042969 27.578125 11.4375 37.015625 16.085938v46.582031c0 4.179687.238281 8.300781.679687 12.363281-8.273437.78125-16.542969-2.109375-22.582031-8.152344zm175.210938 146.816406c-3.542969 1.484376-7.382813 1.074219-10.535157-1.121093l-19.527343-13.597657c-6.316407-4.402343-14.195313-5.75-21.613282-3.703124l-47.753906 13.171874c-2.503906.691407-5.050781.097657-6.988281-1.628906-1.9375-1.726562-2.824219-4.1875-2.425781-6.753906l2.566406-16.519531c1.675781-10.808594-3.671875-21.539063-13.308594-26.707031l-20.773438-11.140626c-4-2.144531-4.023437-6.042968-3.9375-7.1875.089844-1.144531.707032-4.996093 4.992188-6.503906l7.765625-2.734375c20.578125 28.128907 53.824219 46.433594 91.265625 46.433594h51.957031l-5.085937 29.699219c-.648438 3.785156-3.054688 6.808594-6.597656 8.292968zm128.304687-62.800781c3.429687 2.632813 2.648437 6.246094 2.328125 7.289063-.320312 1.046875-1.703125 4.472656-6.019531 4.722656l-27.234375 1.5625c-10.917969.628906-20.636719 6.691406-26.003906 16.21875l-10.375 18.421875c-1.394532 2.476563-3.8125 4.097656-6.628907 4.445313-2.820312.355468-5.5625-.625-7.519531-2.683594l-20.5625-21.589844.726562-4.21875c31.179688-3.304688 58.617188-19.335938 77-42.792969zm48.578125-139.074219c-16.8125 42.199219-24.433594 52.5625-26.929688 55.058594-6.042968 6.042969-14.3125 8.933594-22.585937 8.152344.445313-4.0625.679687-8.183594.679687-12.363281v-46.582031c9.4375-4.648438 21.847657-10.042969 37.015626-16.085938 5.160156-2.054688 8.804687 1.027344 9.796874 2.019531.996094.996094 4.078126 4.640625 2.023438 9.800781zm0 0"/></svg>