<svg id="Capa_1" enable-background="new 0 0 512 512" height="512" viewBox="0 0 512 512" width="512" xmlns="http://www.w3.org/2000/svg"><path d="m256 512c-11.379 0-20.604-9.225-20.604-20.604v-371.266h41.207v371.266c.001 11.379-9.224 20.604-20.603 20.604z" fill="#ab47bc"/><ellipse cx="256" cy="46.358" fill="#ef5350" rx="46.5" ry="46.358"/><path d="m256 0c-5.436 0-10.651.939-15.5 2.648 18.058 6.365 31 23.527 31 43.71s-12.942 37.345-31 43.71c4.849 1.709 10.064 2.648 15.5 2.648 25.681 0 46.5-20.756 46.5-46.358s-20.819-46.358-46.5-46.358z" fill="#f44336"/><path d="m280.724 441.976h-49.449c-3.414 0-6.181-2.767-6.181-6.181v-24.725c0-3.414 2.767-6.181 6.181-6.181h49.449c3.414 0 6.181 2.767 6.181 6.181v24.724c0 3.414-2.767 6.182-6.181 6.182z" fill="#ffd740"/><path d="m280.724 404.889h-30.905c3.414 0 6.181 2.767 6.181 6.181v24.724c0 3.414-2.767 6.181-6.181 6.181h30.905c3.414 0 6.181-2.767 6.181-6.181v-24.724c0-3.414-2.767-6.181-6.181-6.181z" fill="#ffc400"/><path d="m256 34.336c-15.496 0-28.104 12.607-28.104 28.104s12.607 28.104 28.104 28.104 28.104-12.607 28.104-28.104-12.608-28.104-28.104-28.104zm0 41.208c-7.225 0-13.104-5.879-13.104-13.104s5.879-13.104 13.104-13.104 13.104 5.878 13.104 13.104-5.879 13.104-13.104 13.104z" fill="#ffd740"/><path d="m280.724 120.13h-49.449c-3.414 0-6.181-2.767-6.181-6.181v-24.724c0-3.414 2.767-6.181 6.181-6.181h49.449c3.414 0 6.181 2.767 6.181 6.181v24.724c0 3.414-2.767 6.181-6.181 6.181z" fill="#ffd740"/><path d="m280.724 83.044h-30.905c3.414 0 6.181 2.767 6.181 6.181v24.724c0 3.414-2.767 6.181-6.181 6.181h30.905c3.414 0 6.181-2.767 6.181-6.181v-24.724c0-3.414-2.767-6.181-6.181-6.181z" fill="#ffc400"/></svg>